# xmcd
#
# Track frame offsets: 
#        150
#        1467
#        23690
#        57148
#        82411
#        110658
#        150557
#        175901
#
# Disc length: 2671 seconds
#
# Revision: 1
# Processed by: cddbd v1.5.2PL0 Copyright (c) Steve Scherf et al.
# Submitted via: ExactAudioCopy v0.95b4
#
DISCID=5d0a6d08
DTITLE=Douglas Adams - CD1 Per Anhalter durch die Galaxis
DYEAR=2005
DGENRE=Speech
TTITLE0=101
TTITLE1=102
TTITLE2=103
TTITLE3=104
TTITLE4=105
TTITLE5=106
TTITLE6=107
TTITLE7=108
EXTD=
EXTT0=
EXTT1=
EXTT2=
EXTT3=
EXTT4=
EXTT5=
EXTT6=
EXTT7=
PLAYORDER=
